<svg xmlns="http://www.w3.org/2000/svg" width="1470" height="1986.8" viewBox="0 0 1470 1986.8" font-family="Microsoft YaHei, sans-serif">
<rect width="1470" height="1986.8" fill="#fbfaf7"/>
<text x="40" y="34" font-size="24" font-weight="bold">海特洛市 道路规划 v3 — 简净网格（先路后楼）</text>
<text x="40" y="62" font-size="15" fill="#555">北=上 · 单位米 · 红■十字 / 橙●T字 / 黄◆L角 · 灰▲尽端不编号 · 所有路口已编号标注</text>
<g transform="translate(45,76)"><rect x="230" y="101.2" width="920" height="312.8" fill="#d3e3f4" stroke="#c2b9a8" stroke-width="1.2"/>
<text x="690" y="251.60000000000002" text-anchor="middle" font-size="15" fill="#40382c" font-weight="bold">新赫兰德 CBD</text>
<text x="690" y="269.6" text-anchor="middle" font-size="11" fill="#776b5a">cbd</text><rect x="193.20000000000002" y="414" width="993.5999999999999" height="312.80000000000007" fill="#e2ecdc" stroke="#c2b9a8" stroke-width="1.2"/>
<text x="690" y="564.4000000000001" text-anchor="middle" font-size="15" fill="#40382c" font-weight="bold">过渡商住区</text>
<text x="690" y="582.4000000000001" text-anchor="middle" font-size="11" fill="#776b5a">mix</text><rect x="193.20000000000002" y="726.8000000000001" width="506" height="386.4" fill="#f6e0b8" stroke="#c2b9a8" stroke-width="1.2"/>
<text x="446.20000000000005" y="914" text-anchor="middle" font-size="15" fill="#40382c" font-weight="bold">桥间地老城区</text>
<text x="446.20000000000005" y="932" text-anchor="middle" font-size="11" fill="#776b5a">old</text><rect x="901.6" y="726.8000000000001" width="395.6" height="340.4" fill="#f7dde6" stroke="#c2b9a8" stroke-width="1.2"/>
<text x="1099.4" y="891" text-anchor="middle" font-size="15" fill="#40382c" font-weight="bold">绘空町文创区</text>
<text x="1099.4" y="909" text-anchor="middle" font-size="11" fill="#776b5a">culture</text><rect x="147.20000000000002" y="1113.2" width="1085.6" height="303.5999999999999" fill="#d4ebec" stroke="#c2b9a8" stroke-width="1.2"/>
<text x="690" y="1259" text-anchor="middle" font-size="15" fill="#40382c" font-weight="bold">未闻浦滨海区</text>
<text x="690" y="1277" text-anchor="middle" font-size="11" fill="#776b5a">seaside</text><polyline points="92,644 1288,644" fill="none" stroke="#20242b" stroke-width="6.2" stroke-linecap="round" stroke-linejoin="round"/><text x="1288" y="637" font-size="11" fill="#111" stroke="#fbfaf7" stroke-width="3.5" paint-order="stroke">cross 16m</text><polyline points="690,1343.2 690,101.2" fill="none" stroke="#20242b" stroke-width="6.2" stroke-linecap="round" stroke-linejoin="round"/><text x="696" y="111.2" font-size="11" fill="#111" stroke="#fbfaf7" stroke-width="3.5" paint-order="stroke">northsouth 16m</text><polyline points="184,239.20000000000002 1196,239.20000000000002" fill="none" stroke="#20242b" stroke-width="6.2" stroke-linecap="round" stroke-linejoin="round"/><text x="1196" y="232.20000000000002" font-size="11" fill="#111" stroke="#fbfaf7" stroke-width="3.5" paint-order="stroke">northblvd 16m</text><polyline points="184,851 1196,851" fill="none" stroke="#20242b" stroke-width="6.2" stroke-linecap="round" stroke-linejoin="round"/><text x="1196" y="844" font-size="11" fill="#111" stroke="#fbfaf7" stroke-width="3.5" paint-order="stroke">southblvd 16m</text><polyline points="276,1297.2 276,184" fill="none" stroke="#20242b" stroke-width="6.2" stroke-linecap="round" stroke-linejoin="round"/><text x="282" y="194" font-size="11" fill="#111" stroke="#fbfaf7" stroke-width="3.5" paint-order="stroke">westave 16m</text><polyline points="1104,1297.2 1104,184" fill="none" stroke="#20242b" stroke-width="6.2" stroke-linecap="round" stroke-linejoin="round"/><text x="1110" y="194" font-size="11" fill="#111" stroke="#fbfaf7" stroke-width="3.5" paint-order="stroke">eastave 16m</text><polyline points="483,1058 483,239.20000000000002" fill="none" stroke="#5c636e" stroke-width="3.6" stroke-linecap="round" stroke-linejoin="round"/><polyline points="897,1058 897,239.20000000000002" fill="none" stroke="#5c636e" stroke-width="3.6" stroke-linecap="round" stroke-linejoin="round"/><polyline points="184,437 1196,437" fill="none" stroke="#5c636e" stroke-width="3.6" stroke-linecap="round" stroke-linejoin="round"/><polyline points="184,1081 1196,1081" fill="none" stroke="#5c636e" stroke-width="3.6" stroke-linecap="round" stroke-linejoin="round"/><polyline points="276,975.2 690,975.2" fill="none" stroke="#94866f" stroke-width="2.6" stroke-linecap="round" stroke-linejoin="round"/><polyline points="276,883.2 690,883.2" fill="none" stroke="#94866f" stroke-width="2.6" stroke-linecap="round" stroke-linejoin="round"/><polyline points="379.5,1048.8 379.5,851" fill="none" stroke="#94866f" stroke-width="2.6" stroke-linecap="round" stroke-linejoin="round"/><polyline points="897,966 1278.8,966" fill="none" stroke="#b06a7e" stroke-width="2.3" stroke-linecap="round" stroke-linejoin="round"/><polyline points="897,864.8000000000001 1278.8,864.8000000000001" fill="none" stroke="#b06a7e" stroke-width="2.3" stroke-linecap="round" stroke-linejoin="round"/><polyline points="1058,1081 1058,763.6" fill="none" stroke="#b06a7e" stroke-width="2.3" stroke-linecap="round" stroke-linejoin="round"/><polyline points="147.20000000000002,1352.4 340.40000000000003,1324.8 515.2,1354.7 690,1331.7 864.8000000000001,1357 1039.6000000000001,1324.8 1232.8,1352.4" fill="none" stroke="#0a6b8a" stroke-width="4.6" stroke-linecap="round" stroke-linejoin="round"/><text x="690" y="1324.7" font-size="11" fill="#111" stroke="#fbfaf7" stroke-width="3.5" paint-order="stroke">coast 12m</text><polyline points="690,1331.7 690,1393.8" fill="none" stroke="#94866f" stroke-width="2.6" stroke-linecap="round" stroke-linejoin="round"/><path d="M 686 1397.8 L 694 1397.8 L 690 1389.8 Z" fill="#5a8a6a" stroke="#fff" stroke-width="1"/><path d="M 143.20000000000002 1356.4 L 151.20000000000002 1356.4 L 147.20000000000002 1348.4 Z" fill="#5a8a6a" stroke="#fff" stroke-width="1"/><path d="M 1228.8 1356.4 L 1236.8 1356.4 L 1232.8 1348.4 Z" fill="#5a8a6a" stroke="#fff" stroke-width="1"/><path d="M 686 1347.2 L 694 1347.2 L 690 1339.2 Z" fill="#5a8a6a" stroke="#fff" stroke-width="1"/><circle cx="690" cy="1331.7" r="6.5" fill="#e8c218" stroke="#fff" stroke-width="1.6"/><text x="699" y="1324.7" font-size="12" font-weight="bold" fill="#222">J1</text><path d="M 272 1301.2 L 280 1301.2 L 276 1293.2 Z" fill="#5a8a6a" stroke="#fff" stroke-width="1"/><path d="M 1100 1301.2 L 1108 1301.2 L 1104 1293.2 Z" fill="#5a8a6a" stroke="#fff" stroke-width="1"/><path d="M 180 1085 L 188 1085 L 184 1077 Z" fill="#5a8a6a" stroke="#fff" stroke-width="1"/><circle cx="276" cy="1081" r="6.5" fill="#d81e3a" stroke="#fff" stroke-width="1.6"/><text x="285" y="1074" font-size="12" font-weight="bold" fill="#222">J2</text><circle cx="690" cy="1081" r="6.5" fill="#d81e3a" stroke="#fff" stroke-width="1.6"/><text x="699" y="1074" font-size="12" font-weight="bold" fill="#222">J3</text><circle cx="1058" cy="1081" r="6.5" fill="#e8871e" stroke="#fff" stroke-width="1.6"/><text x="1067" y="1074" font-size="12" font-weight="bold" fill="#222">J4</text><circle cx="1104" cy="1081" r="6.5" fill="#d81e3a" stroke="#fff" stroke-width="1.6"/><text x="1113" y="1074" font-size="12" font-weight="bold" fill="#222">J5</text><path d="M 1192 1085 L 1200 1085 L 1196 1077 Z" fill="#5a8a6a" stroke="#fff" stroke-width="1"/><path d="M 479 1062 L 487 1062 L 483 1054 Z" fill="#5a8a6a" stroke="#fff" stroke-width="1"/><path d="M 893 1062 L 901 1062 L 897 1054 Z" fill="#5a8a6a" stroke="#fff" stroke-width="1"/><path d="M 375.5 1052.8 L 383.5 1052.8 L 379.5 1044.8 Z" fill="#5a8a6a" stroke="#fff" stroke-width="1"/><circle cx="276" cy="975.2" r="6.5" fill="#e8871e" stroke="#fff" stroke-width="1.6"/><text x="285" y="968.2" font-size="12" font-weight="bold" fill="#222">J6</text><circle cx="379.5" cy="975.2" r="6.5" fill="#d81e3a" stroke="#fff" stroke-width="1.6"/><text x="388.5" y="968.2" font-size="12" font-weight="bold" fill="#222">J7</text><circle cx="483" cy="975.2" r="6.5" fill="#d81e3a" stroke="#fff" stroke-width="1.6"/><text x="492" y="968.2" font-size="12" font-weight="bold" fill="#222">J8</text><circle cx="690" cy="975.2" r="6.5" fill="#e8871e" stroke="#fff" stroke-width="1.6"/><text x="699" y="968.2" font-size="12" font-weight="bold" fill="#222">J9</text><circle cx="897" cy="966" r="6.5" fill="#e8871e" stroke="#fff" stroke-width="1.6"/><text x="906" y="959" font-size="12" font-weight="bold" fill="#222">J10</text><circle cx="1058" cy="966" r="6.5" fill="#d81e3a" stroke="#fff" stroke-width="1.6"/><text x="1067" y="959" font-size="12" font-weight="bold" fill="#222">J11</text><circle cx="1104" cy="966" r="6.5" fill="#d81e3a" stroke="#fff" stroke-width="1.6"/><text x="1113" y="959" font-size="12" font-weight="bold" fill="#222">J12</text><path d="M 1274.8 970 L 1282.8 970 L 1278.8 962 Z" fill="#5a8a6a" stroke="#fff" stroke-width="1"/><circle cx="276" cy="883.2" r="6.5" fill="#e8871e" stroke="#fff" stroke-width="1.6"/><text x="285" y="876.2" font-size="12" font-weight="bold" fill="#222">J13</text><circle cx="379.5" cy="883.2" r="6.5" fill="#d81e3a" stroke="#fff" stroke-width="1.6"/><text x="388.5" y="876.2" font-size="12" font-weight="bold" fill="#222">J14</text><circle cx="483" cy="883.2" r="6.5" fill="#d81e3a" stroke="#fff" stroke-width="1.6"/><text x="492" y="876.2" font-size="12" font-weight="bold" fill="#222">J15</text><circle cx="690" cy="883.2" r="6.5" fill="#e8871e" stroke="#fff" stroke-width="1.6"/><text x="699" y="876.2" font-size="12" font-weight="bold" fill="#222">J16</text><circle cx="897" cy="864.8000000000001" r="6.5" fill="#e8871e" stroke="#fff" stroke-width="1.6"/><text x="906" y="857.8000000000001" font-size="12" font-weight="bold" fill="#222">J17</text><circle cx="1058" cy="864.8000000000001" r="6.5" fill="#d81e3a" stroke="#fff" stroke-width="1.6"/><text x="1067" y="857.8000000000001" font-size="12" font-weight="bold" fill="#222">J18</text><circle cx="1104" cy="864.8000000000001" r="6.5" fill="#d81e3a" stroke="#fff" stroke-width="1.6"/><text x="1113" y="857.8000000000001" font-size="12" font-weight="bold" fill="#222">J19</text><path d="M 1274.8 868.8000000000001 L 1282.8 868.8000000000001 L 1278.8 860.8000000000001 Z" fill="#5a8a6a" stroke="#fff" stroke-width="1"/><path d="M 180 855 L 188 855 L 184 847 Z" fill="#5a8a6a" stroke="#fff" stroke-width="1"/><circle cx="276" cy="851" r="6.5" fill="#d81e3a" stroke="#fff" stroke-width="1.6"/><text x="285" y="844" font-size="12" font-weight="bold" fill="#222">J20</text><circle cx="379.5" cy="851" r="6.5" fill="#e8871e" stroke="#fff" stroke-width="1.6"/><text x="388.5" y="844" font-size="12" font-weight="bold" fill="#222">J21</text><circle cx="483" cy="851" r="6.5" fill="#d81e3a" stroke="#fff" stroke-width="1.6"/><text x="492" y="844" font-size="12" font-weight="bold" fill="#222">J22</text><circle cx="690" cy="851" r="6.5" fill="#d81e3a" stroke="#fff" stroke-width="1.6"/><text x="699" y="844" font-size="12" font-weight="bold" fill="#222">J23</text><circle cx="897" cy="851" r="6.5" fill="#d81e3a" stroke="#fff" stroke-width="1.6"/><text x="906" y="844" font-size="12" font-weight="bold" fill="#222">J24</text><circle cx="1058" cy="851" r="6.5" fill="#d81e3a" stroke="#fff" stroke-width="1.6"/><text x="1067" y="844" font-size="12" font-weight="bold" fill="#222">J25</text><circle cx="1104" cy="851" r="6.5" fill="#d81e3a" stroke="#fff" stroke-width="1.6"/><text x="1113" y="844" font-size="12" font-weight="bold" fill="#222">J26</text><path d="M 1192 855 L 1200 855 L 1196 847 Z" fill="#5a8a6a" stroke="#fff" stroke-width="1"/><path d="M 1054 767.6 L 1062 767.6 L 1058 759.6 Z" fill="#5a8a6a" stroke="#fff" stroke-width="1"/><path d="M 88 648 L 96 648 L 92 640 Z" fill="#5a8a6a" stroke="#fff" stroke-width="1"/><circle cx="276" cy="644" r="6.5" fill="#d81e3a" stroke="#fff" stroke-width="1.6"/><text x="285" y="637" font-size="12" font-weight="bold" fill="#222">J27</text><circle cx="483" cy="644" r="6.5" fill="#d81e3a" stroke="#fff" stroke-width="1.6"/><text x="492" y="637" font-size="12" font-weight="bold" fill="#222">J28</text><circle cx="690" cy="644" r="6.5" fill="#d81e3a" stroke="#fff" stroke-width="1.6"/><text x="699" y="637" font-size="12" font-weight="bold" fill="#222">J29</text><circle cx="897.0000000000001" cy="644" r="6.5" fill="#d81e3a" stroke="#fff" stroke-width="1.6"/><text x="906.0000000000001" y="637" font-size="12" font-weight="bold" fill="#222">J30</text><circle cx="1104" cy="644" r="6.5" fill="#d81e3a" stroke="#fff" stroke-width="1.6"/><text x="1113" y="637" font-size="12" font-weight="bold" fill="#222">J31</text><path d="M 1284 648 L 1292 648 L 1288 640 Z" fill="#5a8a6a" stroke="#fff" stroke-width="1"/><path d="M 180 441 L 188 441 L 184 433 Z" fill="#5a8a6a" stroke="#fff" stroke-width="1"/><circle cx="276" cy="437" r="6.5" fill="#d81e3a" stroke="#fff" stroke-width="1.6"/><text x="285" y="430" font-size="12" font-weight="bold" fill="#222">J32</text><circle cx="483" cy="437" r="6.5" fill="#d81e3a" stroke="#fff" stroke-width="1.6"/><text x="492" y="430" font-size="12" font-weight="bold" fill="#222">J33</text><circle cx="690" cy="437" r="6.5" fill="#d81e3a" stroke="#fff" stroke-width="1.6"/><text x="699" y="430" font-size="12" font-weight="bold" fill="#222">J34</text><circle cx="897" cy="437" r="6.5" fill="#d81e3a" stroke="#fff" stroke-width="1.6"/><text x="906" y="430" font-size="12" font-weight="bold" fill="#222">J35</text><circle cx="1104" cy="437" r="6.5" fill="#d81e3a" stroke="#fff" stroke-width="1.6"/><text x="1113" y="430" font-size="12" font-weight="bold" fill="#222">J36</text><path d="M 1192 441 L 1200 441 L 1196 433 Z" fill="#5a8a6a" stroke="#fff" stroke-width="1"/><path d="M 180 243.20000000000002 L 188 243.20000000000002 L 184 235.20000000000002 Z" fill="#5a8a6a" stroke="#fff" stroke-width="1"/><circle cx="276" cy="239.20000000000002" r="6.5" fill="#d81e3a" stroke="#fff" stroke-width="1.6"/><text x="285" y="232.20000000000002" font-size="12" font-weight="bold" fill="#222">J37</text><circle cx="483" cy="239.20000000000002" r="6.5" fill="#e8871e" stroke="#fff" stroke-width="1.6"/><text x="492" y="232.20000000000002" font-size="12" font-weight="bold" fill="#222">J38</text><circle cx="690" cy="239.20000000000002" r="6.5" fill="#d81e3a" stroke="#fff" stroke-width="1.6"/><text x="699" y="232.20000000000002" font-size="12" font-weight="bold" fill="#222">J39</text><circle cx="897" cy="239.20000000000002" r="6.5" fill="#e8871e" stroke="#fff" stroke-width="1.6"/><text x="906" y="232.20000000000002" font-size="12" font-weight="bold" fill="#222">J40</text><circle cx="1104" cy="239.20000000000002" r="6.5" fill="#d81e3a" stroke="#fff" stroke-width="1.6"/><text x="1113" y="232.20000000000002" font-size="12" font-weight="bold" fill="#222">J41</text><path d="M 1192 243.20000000000002 L 1200 243.20000000000002 L 1196 235.20000000000002 Z" fill="#5a8a6a" stroke="#fff" stroke-width="1"/><path d="M 272 188 L 280 188 L 276 180 Z" fill="#5a8a6a" stroke="#fff" stroke-width="1"/><path d="M 1100 188 L 1108 188 L 1104 180 Z" fill="#5a8a6a" stroke="#fff" stroke-width="1"/><path d="M 686 105.2 L 694 105.2 L 690 97.2 Z" fill="#5a8a6a" stroke="#fff" stroke-width="1"/><circle cx="690" cy="644" r="13" fill="none" stroke="#f0b400" stroke-width="3"/>
<text x="708" y="634" font-size="13" fill="#8a6400" font-weight="bold">出生点</text></g><g transform="translate(4,4)">
<rect x="0" y="0" width="230" height="130" fill="#ffffff" opacity="0.95" stroke="#ccc"/>
<text x="10" y="18" font-size="12" font-weight="bold">图例</text>
<line x1="10" y1="30" x2="48" y2="30" stroke="#20242b" stroke-width="6"/><text x="56" y="34" font-size="11">主干道 16m</text>
<line x1="10" y1="44" x2="48" y2="44" stroke="#5c636e" stroke-width="3.6"/><text x="56" y="48" font-size="11">次干道 9m</text>
<line x1="10" y1="58" x2="48" y2="58" stroke="#94866f" stroke-width="2.6"/><text x="56" y="62" font-size="11">老城巷 7m</text>
<line x1="10" y1="72" x2="48" y2="72" stroke="#b06a7e" stroke-width="2.3"/><text x="56" y="76" font-size="11">文创巷 6m</text>
<line x1="10" y1="86" x2="48" y2="86" stroke="#0a6b8a" stroke-width="4.6"/><text x="56" y="90" font-size="11">滨海弯路 12m</text>
<circle cx="15" cy="102" r="5" fill="#d81e3a"/><text x="26" y="106" font-size="10.5">十字</text>
<circle cx="65" cy="102" r="5" fill="#e8871e"/><text x="76" y="106" font-size="10.5">T字</text>
<circle cx="115" cy="102" r="5" fill="#e8c218"/><text x="126" y="106" font-size="10.5">L角</text>
<path d="M 160 106 L 166 114 L 172 106 Z" fill="#5a8a6a"/><text x="176" y="106" font-size="10.5">尽端</text>
</g><g transform="translate(45,1526.8)">
<text x="0" y="0" font-size="16" font-weight="bold">道路表（18 条）</text>
<text x="0" y="28" font-size="14">cross · arterial 16m · 东西主街（出生点）</text><text x="700" y="28" font-size="14">northsouth · arterial 16m · 南北大道</text><text x="0" y="50" font-size="14">northblvd · arterial 16m · 北环大道</text><text x="700" y="50" font-size="14">southblvd · arterial 16m · 南环大道</text><text x="0" y="72" font-size="14">westave · arterial 16m · 西大道</text><text x="700" y="72" font-size="14">eastave · arterial 16m · 东大道</text><text x="0" y="94" font-size="14">s3 · secondary 9m · 老城纵向次干道</text><text x="700" y="94" font-size="14">s4 · secondary 9m · 文创纵向次干道</text><text x="0" y="116" font-size="14">mixline · secondary 9m · 过渡区中横路</text><text x="700" y="116" font-size="14">sealine · secondary 9m · 老城南界路</text><text x="0" y="138" font-size="14">o1 · lane 7m · 老城巷（东端接南北大道）</text><text x="700" y="138" font-size="14">o2 · lane 7m · 老城巷（东端接南北大道）</text><text x="0" y="160" font-size="14">o3 · lane 7m · 老城纵巷（两端T字）</text><text x="700" y="160" font-size="14">c1 · culture 6m · 樱花横巷（东端尽端）</text><text x="0" y="182" font-size="14">c2 · culture 6m · 樱花横巷（东端尽端）</text><text x="700" y="182" font-size="14">c3 · culture 6m · 文创纵巷</text><text x="0" y="204" font-size="14">coast · coast 12m · 滨海S弯路</text><text x="700" y="204" font-size="14">pier · lane 7m · 码头尽端路</text>
<text x="0" y="230" font-size="16" font-weight="bold">全部路口（41 个；另有 25 个尽端以灰▲标于图中）</text>
<text x="0" y="28" font-size="13">J1 L角 northsouth+coast+pier</text><text x="360" y="28" font-size="13">J2 十字 westave+sealine</text><text x="720" y="28" font-size="13">J3 十字 northsouth+sealine</text><text x="1080" y="28" font-size="13">J4 T字 sealine+c3</text><text x="0" y="48" font-size="13">J5 十字 eastave+sealine</text><text x="360" y="48" font-size="13">J6 T字 westave+o1</text><text x="720" y="48" font-size="13">J7 十字 o1+o3</text><text x="1080" y="48" font-size="13">J8 十字 s3+o1</text><text x="0" y="68" font-size="13">J9 T字 northsouth+o1</text><text x="360" y="68" font-size="13">J10 T字 s4+c1</text><text x="720" y="68" font-size="13">J11 十字 c1+c3</text><text x="1080" y="68" font-size="13">J12 十字 eastave+c1</text><text x="0" y="88" font-size="13">J13 T字 westave+o2</text><text x="360" y="88" font-size="13">J14 十字 o2+o3</text><text x="720" y="88" font-size="13">J15 十字 s3+o2</text><text x="1080" y="88" font-size="13">J16 T字 northsouth+o2</text><text x="0" y="108" font-size="13">J17 T字 s4+c2</text><text x="360" y="108" font-size="13">J18 十字 c2+c3</text><text x="720" y="108" font-size="13">J19 十字 eastave+c2</text><text x="1080" y="108" font-size="13">J20 十字 southblvd+westave</text><text x="0" y="128" font-size="13">J21 T字 southblvd+o3</text><text x="360" y="128" font-size="13">J22 十字 southblvd+s3</text><text x="720" y="128" font-size="13">J23 十字 northsouth+southblvd</text><text x="1080" y="128" font-size="13">J24 十字 southblvd+s4</text><text x="0" y="148" font-size="13">J25 十字 southblvd+c3</text><text x="360" y="148" font-size="13">J26 十字 southblvd+eastave</text><text x="720" y="148" font-size="13">J27 十字 cross+westave</text><text x="1080" y="148" font-size="13">J28 十字 cross+s3</text><text x="0" y="168" font-size="13">J29 十字 cross+northsouth</text><text x="360" y="168" font-size="13">J30 十字 cross+s4</text><text x="720" y="168" font-size="13">J31 十字 cross+eastave</text><text x="1080" y="168" font-size="13">J32 十字 westave+mixline</text><text x="0" y="188" font-size="13">J33 十字 s3+mixline</text><text x="360" y="188" font-size="13">J34 十字 northsouth+mixline</text><text x="720" y="188" font-size="13">J35 十字 s4+mixline</text><text x="1080" y="188" font-size="13">J36 十字 eastave+mixline</text><text x="0" y="208" font-size="13">J37 十字 northblvd+westave</text><text x="360" y="208" font-size="13">J38 T字 northblvd+s3</text><text x="720" y="208" font-size="13">J39 十字 northsouth+northblvd</text><text x="1080" y="208" font-size="13">J40 T字 northblvd+s4</text><text x="0" y="228" font-size="13">J41 十字 northblvd+eastave</text>
</g></svg>